<svg width="570.2199951171875px" height="124.439990234375px" xmlns="http://www.w3.org/2000/svg" viewBox="-35.10999755859376 12.780004882812499 570.2199951171875 124.439990234375" style="background: rgba(0, 0, 0, 0) none repeat scroll 0% 0%;" preserveAspectRatio="xMidYMid"><defs><filter id="editing-raise" x="-100%" y="-100%" width="300%" height="300%"><feFlood flood-color="#ccc" result="flood-surface"></feFlood><feFlood flood-color="#777777" result="flood-extrude"></feFlood><feMorphology operator="erode" in="SourceAlpha" radius="1" result="erode"></feMorphology><feConvolveMatrix in="erode" result="shadow" order="11,8" divisor="1" kernelMatrix="0 0 0 1 1 1 1 1 0 0 0 0 0 1 0 0 0 0 0 1 0 0 0 0 1 0 0 0 0 0 1 0 0 0 0 1 0 0 0 0 0 1 0 0 0 0 1 0 0 0 0 0 1 0 0 0 0 0 1 0 0 0 1 0 0 0 0 0 0 1 1 0 1 1 0 0 0 0 0 0 0 0 1 0 0 0 0 0"></feConvolveMatrix><feOffset dx="0" dy="4" in="shadow" result="offset"></feOffset><feGaussianBlur in="offset" stdDeviation="0.2" result="blur"></feGaussianBlur><feComposite operator="in" in="flood-extrude" in2="blur" result="extrude"></feComposite><feMorphology operator="erode" in="SourceAlpha" radius="1" result="erode2"></feMorphology><feConvolveMatrix in="erode2" result="out" order="4,4" divisor="1" kernelMatrix="0 1 1 0 1 0 0 1 1 0 0 1 0 1 1 0 "></feConvolveMatrix><feComposite operator="in" in="flood-surface" in2="out" result="text"></feComposite><feMerge><feMergeNode in="extrude"></feMergeNode><feMergeNode in="text"></feMergeNode></feMerge></filter></defs><g filter="url(#editing-raise)"><g transform="translate(50.0670707821846, 97.43000030517578)"><path d="M26.11-42.69L26.11-42.69L26.11-42.69Q41.79-42.69 41.79-31.62L41.79-31.62L41.79-31.62Q41.79-25.54 37.89-21.89L37.89-21.89L37.89-21.89Q34.05-18.24 27.33-18.24L27.33-18.24L27.33-18.24Q24.19-18.24 21.76-20.03L21.76-20.03L21.76-20.03Q20.61-20.80 19.84-21.82L19.84-21.82L19.84-21.82Q24.51-21.82 26.98-24.67L26.98-24.67L26.98-24.67Q29.44-27.52 29.44-33.09L29.44-33.09L29.44-33.09Q29.44-38.66 23.94-38.66L23.94-38.66L22.40-38.66L22.40-38.66Q22.02-38.66 21.70-38.59L21.70-38.59L14.34 0L0.45 0L8.32-41.92L8.32-41.92Q15.17-42.56 19.14-42.62L19.14-42.62L19.14-42.62Q23.10-42.69 26.11-42.69ZM55.23 0L41.54 0L49.34-42.05L49.34-42.05Q55.68-42.75 64.93-42.75L64.93-42.75L64.93-42.75Q74.18-42.75 78.46-40.06L78.46-40.06L78.46-40.06Q82.75-37.38 82.75-31.97L82.75-31.97L82.75-31.97Q82.75-26.56 79.97-23.17L79.97-23.17L79.97-23.17Q77.18-19.78 72.38-18.69L72.38-18.69L72.38-18.69Q73.47-13.38 75.97-9.09L75.97-9.09L75.97-9.09Q78.27-5.06 80.96-3.78L80.96-3.78L80.96-3.78Q80-1.09 78.05 0.10L78.05 0.10L78.05 0.10Q76.10 1.28 73.31 1.28L73.31 1.28L73.31 1.28Q70.53 1.28 68.35-0.35L68.35-0.35L68.35-0.35Q66.18-1.98 64.45-4.99L64.45-4.99L64.45-4.99Q60.80-11.52 60.42-21.82L60.42-21.82L60.86-21.82L60.86-21.82Q65.60-21.95 67.97-24.42L67.97-24.42L67.97-24.42Q70.34-26.88 70.34-32.06L70.34-32.06L70.34-32.06Q70.34-38.53 64.90-38.78L64.90-38.78L63.49-38.78L63.49-38.78Q62.91-38.78 62.59-38.72L62.59-38.72L55.23 0ZM113.79 1.28L113.79 1.28L113.79 1.28Q105.60 1.28 104.83-10.37L104.83-10.37L93.82-10.37L93.82-10.37Q92.54-7.42 91.65-4.86L91.65-4.86L89.98 0L81.02 0L101.18-42.24L114.94-42.24L117.63-11.14L117.63-11.14Q118.27-4.42 120.83-2.43L120.83-2.43L120.83-2.43Q118.98 1.28 113.79 1.28ZM99.33-23.17L95.81-15.04L104.64-15.04L103.87-31.49L103.87-33.22L99.33-23.17ZM127.94 0L131.65-18.82L131.65-18.82Q129.79-36.16 123.26-39.87L123.26-39.87L123.26-39.87Q124.61-41.54 126.78-42.46L126.78-42.46L126.78-42.46Q128.96-43.39 131.58-43.39L131.58-43.39L131.58-43.39Q134.21-43.39 136.19-42.46L136.19-42.46L136.19-42.46Q138.18-41.54 139.46-39.55L139.46-39.55L139.46-39.55Q141.89-35.78 141.89-26.75L141.89-26.75L141.89-22.14L141.89-22.14Q145.73-33.41 149.57-38.27L149.57-38.27L149.57-38.27Q153.47-43.26 158.34-43.26L158.34-43.26L158.34-43.26Q160.26-43.26 161.54-42.27L161.54-42.27L161.54-42.27Q162.82-41.28 163.46-39.81L163.46-39.81L163.46-39.81Q158.53-37.63 153.79-31.36L153.79-31.36L153.79-31.36Q149.06-25.09 145.98-16.32L145.98-16.32L142.21 0L127.94 0ZM202.30-33.92L202.30-33.92L202.30-33.92Q197.12-33.92 193.34-35.65L193.34-35.65L191.30-25.28L203.65-25.28L203.65-25.28Q203.65-21.89 201.95-19.74L201.95-19.74L201.95-19.74Q200.26-17.60 197.18-17.60L197.18-17.60L197.18-17.60Q193.86-17.60 190.78-18.82L190.78-18.82L190.78-18.82Q190.14-19.07 190.08-19.14L190.08-19.14L186.43 0L172.48 0L180.61-42.24L209.15-42.24L209.15-42.24Q209.15-38.34 207.33-36.13L207.33-36.13L207.33-36.13Q205.50-33.92 202.30-33.92ZM208.51-15.62L208.51-15.62L208.51-15.62Q208.51-27.71 214.78-35.33L214.78-35.33L214.78-35.33Q221.44-43.58 233.02-43.58L233.02-43.58L233.02-43.58Q241.41-43.58 245.63-39.52L245.63-39.52L245.63-39.52Q249.86-35.46 249.86-26.88L249.86-26.88L249.86-26.88Q249.86-13.82 243.20-6.21L243.20-6.21L243.20-6.21Q236.61 1.28 225.54 1.28L225.54 1.28L225.54 1.28Q216.90 1.28 212.70-3.04L212.70-3.04L212.70-3.04Q208.51-7.36 208.51-15.62ZM225.34-28.86L225.34-28.86L225.34-28.86Q222.46-17.34 222.46-8.26L222.46-8.26L222.46-8.26Q222.46-6.08 223.20-4.67L223.20-4.67L223.20-4.67Q223.94-3.26 225.89-3.26L225.89-3.26L225.89-3.26Q227.84-3.26 229.06-4.19L229.06-4.19L229.06-4.19Q230.27-5.12 231.23-7.23L231.23-7.23L231.23-7.23Q232.77-10.69 234.21-18.02L234.21-18.02L234.21-18.02Q235.65-25.34 235.78-28.38L235.78-28.38L235.78-28.38Q235.90-31.42 235.90-33.73L235.90-33.73L235.90-33.73Q235.90-36.03 235.20-37.50L235.20-37.50L235.20-37.50Q234.50-38.98 232.61-38.98L232.61-38.98L232.61-38.98Q230.72-38.98 229.44-37.82L229.44-37.82L229.44-37.82Q227.07-35.65 225.34-28.86ZM266.11 0L252.42 0L260.22-42.05L260.22-42.05Q266.56-42.75 275.81-42.75L275.81-42.75L275.81-42.75Q285.06-42.75 289.34-40.06L289.34-40.06L289.34-40.06Q293.63-37.38 293.63-31.97L293.63-31.97L293.63-31.97Q293.63-26.56 290.85-23.17L290.85-23.17L290.85-23.17Q288.06-19.78 283.26-18.69L283.26-18.69L283.26-18.69Q284.35-13.38 286.85-9.09L286.85-9.09L286.85-9.09Q289.15-5.06 291.84-3.78L291.84-3.78L291.84-3.78Q290.88-1.09 288.93 0.10L288.93 0.10L288.93 0.10Q286.98 1.28 284.19 1.28L284.19 1.28L284.19 1.28Q281.41 1.28 279.23-0.35L279.23-0.35L279.23-0.35Q277.06-1.98 275.33-4.99L275.33-4.99L275.33-4.99Q271.68-11.52 271.30-21.82L271.30-21.82L271.74-21.82L271.74-21.82Q276.48-21.95 278.85-24.42L278.85-24.42L278.85-24.42Q281.22-26.88 281.22-32.06L281.22-32.06L281.22-32.06Q281.22-38.53 275.78-38.78L275.78-38.78L274.37-38.78L274.37-38.78Q273.79-38.78 273.47-38.72L273.47-38.72L266.11 0ZM315.20 0L307.84 0L319.42-42.24L332.80-42.24L335.74-18.11L347.65-42.24L358.85-42.24L360-10.62L360-10.62Q360.26-4.35 363.33-2.43L363.33-2.43L363.33-2.43Q362.62-1.15 360.58 0.06L360.58 0.06L360.58 0.06Q358.53 1.28 355.81 1.28L355.81 1.28L355.81 1.28Q353.09 1.28 351.49 0.51L351.49 0.51L351.49 0.51Q349.89-0.26 348.99-1.54L348.99-1.54L348.99-1.54Q347.39-3.84 347.39-8.26L347.39-8.26L347.39-28.03L334.78 0L326.85 0L322.37-28.74L315.20 0ZM393.41-9.86L393.41-9.86L393.41-9.86Q394.62-8.32 394.62-5.82L394.62-5.82L394.62-5.82Q394.62-2.37 392.06-0.54L392.06-0.54L392.06-0.54Q389.50 1.28 385.47 1.28L385.47 1.28L385.47 1.28Q383.17 1.28 379.65 0.77L379.65 0.77L379.65 0.77Q372.74-0.32 370.62-0.32L370.62-0.32L370.62-0.32Q368.51-0.32 367.68-0.22L367.68-0.22L367.68-0.22Q366.85-0.13 365.50 0L365.50 0L373.38-42.24L400.96-42.24L400.96-42.24Q400.96-38.34 399.07-36.29L399.07-36.29L399.07-36.29Q397.18-34.24 393.47-34.24L393.47-34.24L393.47-34.24Q389.76-34.24 385.98-35.97L385.98-35.97L384-24.77L395.39-24.77L395.39-24.77Q395.39-21.38 393.73-19.49L393.73-19.49L393.73-19.49Q392.06-17.60 389.28-17.60L389.28-17.60L389.28-17.60Q386.50-17.60 384.77-18.24L384.77-18.24L384.77-18.24Q383.04-18.88 382.85-19.07L382.85-19.07L380.54-6.98L380.54-6.98Q382.08-6.78 384.96-6.78L384.96-6.78L384.96-6.78Q389.89-6.78 393.41-9.86Z"></path></g></g><style>text {
  font-size: 64px;
  font-family: Arial Black;
  dominant-baseline: central;
  text-anchor: middle;
}</style></svg>